IKResults-ET1
version=1
nRows=24
nColumns=24
inDegrees=yes

Units are S.I. units (second, meters, Newtons, ...)
If the header above contains a line with 'inDegrees', this indicates whether rotational values are in degrees (yes) or radians (no).

endheader
time	pelvis_tilt	pelvis_list	pelvis_rotation	pelvis_tx	pelvis_ty	pelvis_tz	hip_flexion_r	hip_adduction_r	hip_rotation_r	knee_angle_r	ankle_angle_r	subtalar_angle_r	mtp_angle_r	hip_flexion_l	hip_adduction_l	hip_rotation_l	knee_angle_l	ankle_angle_l	subtalar_angle_l	mtp_angle_l	lumbar_extension	lumbar_bending	lumbar_rotation
      6.14000000	     -2.46397086	     -6.31879771	    182.66333622	     -0.24418276	      1.00919551	     -0.01490707	     25.57802510	     -9.02358334	     -2.75174689	    -55.75142765	      7.81787549	     -0.32896506	      0.00000000	      0.97717141	     11.69516488	      7.36855998	    -15.93794232	     15.33615833	      5.25403144	      0.00000000	    -18.14453947	     -9.96858910	     -0.56435592
      6.15000000	     -2.54433551	     -6.23421371	    183.07473503	     -0.25781232	      1.00883826	     -0.01402449	     26.38828319	     -9.05330972	     -3.10659195	    -53.25617257	      8.54023533	      0.27562424	      0.00000000	     -0.31903146	     11.57998009	      7.91502015	    -15.41905078	     15.66643136	      5.22869500	      0.00000000	    -18.31768580	     -9.76147693	     -1.33375557
      6.16000000	     -2.57978695	     -6.13920177	    183.42523627	     -0.27161740	      1.00817927	     -0.01339827	     27.14057673	     -8.99530363	     -3.32717778	    -50.57578531	      8.92667378	      0.10899243	      0.00000000	     -1.54944570	     11.41427332	      8.39566551	    -14.91839108	     16.13728001	      5.20505686	      0.00000000	    -18.33846747	     -9.52611198	     -1.51080366
      6.17000000	     -2.55921297	     -6.03301437	    183.70985754	     -0.28566667	      1.00720036	     -0.01291322	     27.84892478	     -8.85086781	     -3.39833789	    -47.69636511	      9.19292930	     -0.18907509	      0.00000000	     -2.65439860	     11.20937880	      8.65531759	    -14.56638732	     16.76290688	      5.45858724	      0.00000000	    -18.35938312	     -9.26724096	     -1.77705994
      6.18000000	     -2.44053410	     -5.92466733	    183.98421296	     -0.29964620	      1.00592083	     -0.01264443	     28.57807676	     -8.68398037	     -3.37258273	    -44.65863655	      9.16260426	     -0.61493032	      0.00000000	     -3.57420437	     10.97472809	      8.72355923	    -14.31553512	     17.44682494	      6.05109010	      0.00000000	    -18.25380433	     -9.03184230	     -2.16743222
      6.19000000	     -2.24798666	     -5.86378339	    184.25856675	     -0.31379729	      1.00442473	     -0.01242991	     29.28112400	     -8.54708148	     -3.22016122	    -41.48885061	      9.17423517	     -1.01184969	      0.00000000	     -4.38419638	     10.79458868	      8.96624909	    -14.16666172	     18.00578825	      6.60661752	      0.00000000	    -18.08284187	     -9.00682356	     -2.63440232
      6.20000000	     -1.96569459	     -5.81021549	    184.61119520	     -0.32770587	      1.00263565	     -0.01235018	     29.97353626	     -8.43242692	     -2.99145212	    -38.17108928	      9.11024250	     -1.22687684	      0.00000000	     -5.00357676	     10.59403064	      9.09090812	    -14.16216463	     18.62635308	      7.01013394	      0.00000000	    -17.86580374	     -8.90221036	     -2.94441787
      6.21000000	     -1.68401761	     -5.80137173	    184.89840490	     -0.34207657	      1.00073021	     -0.01226925	     30.55107095	     -8.34184101	     -2.57048448	    -34.81293479	      9.01480170	     -1.37620006	      0.00000000	     -5.65759517	     10.45277306	      9.25646875	    -14.14482752	     19.27585147	      7.40958258	      0.00000000	    -17.62515578	     -8.92734224	     -3.26638258
      6.22000000	     -1.43886436	     -5.85080623	    185.11391541	     -0.35670448	      0.99875772	     -0.01228451	     31.00164822	     -8.30426303	     -2.03193646	    -31.47739357	      8.97235870	     -1.42121238	      0.00000000	     -6.35409272	     10.36818265	      9.27624456	    -14.14612651	     19.69974843	      8.13385434	      0.00000000	    -17.43710907	     -8.98827214	     -3.77360437
      6.23000000	     -1.02279834	     -5.86294800	    185.65173697	     -0.37061251	      0.99633499	     -0.01173994	     31.51879384	     -8.40757219	     -1.61021461	    -28.04227064	      8.85290031	     -1.46541460	      0.00000000	     -6.72292134	     10.27115446	      9.66679408	    -14.39243727	     20.26949727	      8.29988503	      0.00000000	    -17.16802656	     -8.92038807	     -4.05606290
      6.24000000	     -0.68940959	     -5.87456469	    186.01169349	     -0.38517093	      0.99393893	     -0.01159726	     31.83781729	     -8.44438956	     -1.15466301	    -24.67140995	      9.06927052	     -1.39228885	      0.00000000	     -7.22480070	     10.14125332	      9.72255572	    -14.59176871	     20.85437706	      9.07734304	      0.00000000	    -16.90009468	     -8.91812490	     -4.68838571
      6.25000000	     -0.35137120	     -5.85228422	    186.38593720	     -0.39987483	      0.99131439	     -0.01146817	     32.14131774	     -8.47091395	     -0.65162671	    -21.52651160	      9.51514997	     -1.23170769	      0.00000000	     -7.68451884	      9.98517195	      9.80792960	    -14.88163984	     21.47024724	      9.19030406	      0.00000000	    -16.62442027	     -8.82466284	     -4.91610473
      6.26000000	      0.01645581	     -5.83309326	    186.78379873	     -0.41463906	      0.98860938	     -0.01122765	     32.40381794	     -8.55205018	     -0.32252849	    -18.46626257	     10.26932312	     -0.53912314	      0.00000000	     -8.07276178	      9.82158547	      9.77409823	    -15.25081192	     22.05479438	      9.91020774	      0.00000000	    -16.22789059	     -8.70939342	     -5.31997093
      6.27000000	      0.39556504	     -5.74027608	    187.21783858	     -0.42936602	      0.98578770	     -0.01100827	     32.66318368	     -8.59453471	      0.02207163	    -15.67782618	     10.64875797	      0.44368704	      0.00000000	     -8.37221267	      9.60151778	      9.87855210	    -15.74669541	     22.57937710	     10.30274468	      0.00000000	    -15.98734352	     -8.53106969	     -5.82159189
      6.28000000	      0.78390409	     -5.63661016	    187.65873685	     -0.44423622	      0.98291904	     -0.01076312	     32.81210402	     -8.64401113	      0.32068235	    -13.05963875	     11.27686243	      1.34795785	      0.00000000	     -8.60081649	      9.35588866	      9.80642687	    -16.36868964	     23.09778561	     10.75996990	      0.00000000	    -15.59807011	     -8.30718849	     -6.21231795
      6.29000000	      1.09343475	     -5.53347189	    188.06933471	     -0.45933456	      0.98010806	     -0.01064428	     32.92063887	     -8.63841708	      0.86384699	    -10.96822250	     12.02091874	      2.28064419	      0.00000000	     -8.88222617	      9.09672080	      9.73031521	    -17.05223974	     23.47519420	     11.38068463	      0.00000000	    -15.44651211	     -8.19694041	     -6.79249840
      6.30000000	      1.34014020	     -5.37360211	    188.51291450	     -0.47464529	      0.97742088	     -0.01059493	     32.95260591	     -8.58827016	      1.16184938	     -9.40250201	     12.56277847	      2.22753650	      0.00000000	     -9.20152439	      8.76121361	      9.84574325	    -17.81179971	     23.88185235	     11.69930739	      0.00000000	    -15.20252942	     -7.94282655	     -7.41507941
      6.31000000	      1.54249337	     -5.18953491	    188.96861882	     -0.49010752	      0.97481100	     -0.01064616	     32.96830463	     -8.50945137	      1.26908240	     -8.49621483	     13.00876909	      1.90664220	      0.00000000	     -9.51022204	      8.39653214	     10.07071006	    -18.67388471	     24.15647005	     11.73642594	      0.00000000	    -15.04349731	     -7.60556859	     -7.55634288
      6.32000000	      1.69292183	     -4.99732623	    189.35751245	     -0.50598988	      0.97229756	     -0.01085055	     32.98115545	     -8.36876388	      1.02011885	     -8.30855296	     13.34029703	      1.84160817	      0.00000000	     -9.83109544	      8.00176993	     10.24643828	    -19.64063059	     24.43462674	     11.94794782	      0.00000000	    -14.87122471	     -7.26436719	     -7.77239751
      6.33000000	      1.88715034	     -4.78334198	    189.85648796	     -0.52253613	      0.96984177	     -0.01076030	     32.99756678	     -8.28182266	      0.13365416	     -8.89666479	     13.96788968	      3.18430092	      0.00000000	    -10.09309006	      7.55378280	     10.47751792	    -20.67007054	     24.60044118	     12.53790684	      0.00000000	    -14.61090991	     -6.97154948	     -8.40049367
      6.34000000	      1.92319093	     -4.68024464	    190.13663718	     -0.53905696	      0.96749976	     -0.01092047	     32.94344243	     -8.15112837	      0.18510768	     -9.97518561	     14.25755187	      3.73253526	      0.00000000	    -10.47589755	      7.22606779	     10.55650447	    -21.77927263	     24.57708037	     12.76975592	      0.00000000	    -14.49356466	     -6.61649566	     -8.62457080
      6.35000000	      1.87502557	     -4.48899996	    190.54152807	     -0.55598012	      0.96551655	     -0.01092225	     32.68409076	     -7.97035287	     -0.34984656	    -11.54304347	     14.74178876	      5.07777755	      0.00000000	    -10.88032040	      6.73766445	     10.67525046	    -22.96529209	     24.49476427	     13.17669736	      0.00000000	    -14.54795455	     -6.34974837	     -8.99501570
      6.36000000	      1.79115407	     -4.27989579	    190.92012789	     -0.57325412	      0.96381664	     -0.01103951	     32.27951732	     -7.69825858	     -0.55855749	    -13.09703854	     14.89165005	      5.01561801	      0.00000000	    -11.25152601	      6.19861320	     10.69187899	    -24.24392548	     24.01599672	     13.44951005	      0.00000000	    -14.46910175	     -5.94660920	     -9.11677202
      6.37000000	      1.72459903	     -4.01003967	    191.29791448	     -0.59075852	      0.96223073	     -0.01121469	     31.73935400	     -7.30377600	     -0.69124042	    -13.95970838	     14.86064039	      4.61374542	      0.00000000	    -11.50778475	      5.56031150	     10.53027677	    -25.61938427	     23.28596433	     14.18384070	      0.00000000	    -14.36362236	     -5.45700656	     -9.26404996
